<svg width="17" height="16" viewBox="0 0 17 16" fill="none" xmlns="http://www.w3.org/2000/svg">
<path opacity="0.4" fill-rule="evenodd" clip-rule="evenodd" d="M9.27466 14.1334C9.05945 15.1983 8.12301 15.9999 6.99999 15.9999C5.87696 15.9999 4.94052 15.1983 4.7254 14.1334H0.5L2.3571 10.4V6.66659C2.3571 4.08932 4.43584 1.99997 6.99999 1.99997C9.56421 1.99997 11.6429 4.08932 11.6429 6.66659V10.4L13.5 14.1334H9.27466ZM6.99999 15.0667C7.60557 15.0667 8.11566 14.6759 8.3076 14.1334H5.69246C5.88431 14.6759 6.39441 15.0667 6.99999 15.0667ZM10.7143 10.4V6.66659C10.7143 4.60488 9.05135 2.93333 6.99999 2.93333C4.94861 2.93333 3.2857 4.60488 3.2857 6.66659V10.4L1.89281 13.2H12.1071L10.7143 10.4Z" fill="black"/>
<path fill-rule="evenodd" clip-rule="evenodd" d="M14.5 1.00001C15.6046 1.00001 16.5 1.89542 16.5 3.00001C16.5 4.10455 15.6046 5.00001 14.5 5.00001C13.3954 5.00001 12.5 4.10455 12.5 3.00001C12.5 1.89542 13.3954 1.00001 14.5 1.00001Z" fill="#FD4948"/>
</svg>
