<svg width="15" height="14" viewBox="0 0 15 14" fill="none" xmlns="http://www.w3.org/2000/svg">
<path opacity="0.5" fill-rule="evenodd" clip-rule="evenodd" d="M14.3637 13.8659C14.1867 14.04 13.9 14.04 13.723 13.8659L10.0951 10.2957C9.0828 11.1041 7.79397 11.59 6.38873 11.59C3.13649 11.59 0.5 8.99553 0.5 5.79505C0.5 2.59451 3.13649 0 6.38873 0C9.64097 0 12.2776 2.59451 12.2776 5.79505C12.2776 7.29151 11.6962 8.65106 10.7499 9.67922L14.3637 13.2354C14.5406 13.4096 14.5406 13.6919 14.3637 13.8659ZM6.38873 0.891591C3.63675 0.891591 1.40588 3.08686 1.40588 5.79505C1.40588 8.50321 3.63675 10.6986 6.38873 10.6986C9.14063 10.6986 11.3715 8.50321 11.3715 5.79505C11.3715 3.08686 9.14063 0.891591 6.38873 0.891591Z" fill="black"/>
</svg>
